<svg xmlns="http://www.w3.org/2000/svg" viewBox="0 0 160.51 78.53"><defs><style>.cls-1{fill:#1661ae;}.cls-2,.cls-6{fill:#1a62ae;}.cls-2{stroke:#1b63ae;stroke-width:2px;}.cls-2,.cls-3,.cls-5{stroke-miterlimit:10;}.cls-3,.cls-5{fill:none;stroke:#1a62ae;}.cls-3{stroke-width:3.5px;}.cls-4{fill:#787878;}.cls-5{stroke-width:3px;}</style></defs><title>Asset 1</title><g id="Layer_2" data-name="Layer 2"><g id="레이어_1" data-name="레이어 1"><path class="cls-1" d="M40,12.4c0,.27-.12.4-.35.4l-.35-.15-.15-.1A35.5,35.5,0,0,0,33,8.67,20,20,0,0,0,24.51,6.9a21.23,21.23,0,0,0-14,4.93,22.1,22.1,0,0,0-6,7.7A21.87,21.87,0,0,0,2.41,29a21.35,21.35,0,0,0,1.72,8.36,22.32,22.32,0,0,0,12,12,21.51,21.51,0,0,0,8.38,1.71,22.36,22.36,0,0,0,7.8-1.35A20.07,20.07,0,0,0,38.69,46l.25-.2a1.28,1.28,0,0,1,.56-.3c.23,0,.35.13.35.4l-.15.4-.15.15a15.38,15.38,0,0,1-5.4,3.46A24.06,24.06,0,0,1,24.51,52a22.4,22.4,0,0,1-8.68-1.76A23.5,23.5,0,0,1,3.27,37.68,22.24,22.24,0,0,1,1.5,29a22.74,22.74,0,0,1,1.77-8.8,23.12,23.12,0,0,1,5-7.51,22.22,22.22,0,0,1,7.42-5A23.09,23.09,0,0,1,24.51,6a22.14,22.14,0,0,1,8.23,1.54,21.28,21.28,0,0,1,6.71,4.16l.15.15a2.11,2.11,0,0,1,.3.4A.38.38,0,0,0,40,12.4Z"/><path class="cls-2" d="M24.51,52.47a23,23,0,0,1-8.87-1.8A24,24,0,0,1,2.81,37.87,22.84,22.84,0,0,1,1,29a23.35,23.35,0,0,1,1.8-9,23.72,23.72,0,0,1,5.1-7.67,22.83,22.83,0,0,1,7.58-5.08,23.7,23.7,0,0,1,9-1.75,22.74,22.74,0,0,1,8.41,1.57,21.88,21.88,0,0,1,6.87,4.26l.16.16a2.58,2.58,0,0,1,.38.5l.07.12v.14l.05.11v0a.83.83,0,0,1-.85.9l-.2,0L38.82,13a35.35,35.35,0,0,0-6-3.85A19.62,19.62,0,0,0,24.51,7.4a20.84,20.84,0,0,0-13.66,4.82A21.72,21.72,0,0,0,5,19.75,21.47,21.47,0,0,0,2.91,29a21,21,0,0,0,1.68,8.16A21.81,21.81,0,0,0,16.33,48.89a21.1,21.1,0,0,0,8.18,1.67,22,22,0,0,0,7.62-1.32,19.68,19.68,0,0,0,6.23-3.66l.27-.22A1.54,1.54,0,0,1,39.5,45a.83.83,0,0,1,.85.9l0,.18-.27.58-.15.15a15.68,15.68,0,0,1-5.55,3.56A24.68,24.68,0,0,1,24.51,52.47Zm9.9-43.64a38.65,38.65,0,0,1,3.83,2.47A20.57,20.57,0,0,0,34.41,8.83Z"/><path class="cls-2" d="M159,12.4c0,.27-.12.4-.35.4l-.35-.15-.15-.1A35.56,35.56,0,0,0,152,8.67a20,20,0,0,0-8.48-1.77,21.24,21.24,0,0,0-14,4.93,22.11,22.11,0,0,0-6,7.7A21.88,21.88,0,0,0,121.44,29a21.37,21.37,0,0,0,1.72,8.36,22.32,22.32,0,0,0,12,12,21.51,21.51,0,0,0,8.38,1.71,22.36,22.36,0,0,0,7.8-1.35A20.06,20.06,0,0,0,157.72,46l.25-.2a1.28,1.28,0,0,1,.55-.3q.35,0,.35.4l-.15.4-.15.15a15.39,15.39,0,0,1-5.4,3.46,24.06,24.06,0,0,1-9.64,2.1,22.4,22.4,0,0,1-8.68-1.76A23.5,23.5,0,0,1,122.3,37.68a22.24,22.24,0,0,1-1.77-8.7,22.74,22.74,0,0,1,1.77-8.8,23.11,23.11,0,0,1,5-7.51,22.21,22.21,0,0,1,7.42-5A23.09,23.09,0,0,1,143.54,6a22.13,22.13,0,0,1,8.23,1.54,21.26,21.26,0,0,1,6.71,4.16l.15.15a2,2,0,0,1,.3.4A.38.38,0,0,0,159,12.4Z"/><path class="cls-2" d="M143.54,52.47a23,23,0,0,1-8.87-1.8,24,24,0,0,1-12.83-12.8A22.83,22.83,0,0,1,120,29a23.34,23.34,0,0,1,1.8-9,23.71,23.71,0,0,1,5.1-7.67,22.82,22.82,0,0,1,7.58-5.08,23.7,23.7,0,0,1,9-1.75A22.73,22.73,0,0,1,152,7.07a21.83,21.83,0,0,1,6.87,4.26l.16.16a2.5,2.5,0,0,1,.38.5l.07.12v.14l.05.11v0a.83.83,0,0,1-.85.9l-.2,0-.58-.29a35.38,35.38,0,0,0-6-3.85,19.63,19.63,0,0,0-8.27-1.72,20.84,20.84,0,0,0-13.66,4.82,21.7,21.7,0,0,0-5.82,7.53A21.48,21.48,0,0,0,121.94,29a21,21,0,0,0,1.68,8.16,21.79,21.79,0,0,0,27.55,12.07,19.67,19.67,0,0,0,6.23-3.66l.27-.22a1.53,1.53,0,0,1,.86-.41.83.83,0,0,1,.85.9l0,.18-.27.58-.15.15a15.68,15.68,0,0,1-5.55,3.56A24.68,24.68,0,0,1,143.54,52.47Zm9.89-43.64a38.77,38.77,0,0,1,3.83,2.47A20.55,20.55,0,0,0,153.44,8.83Z"/><polyline class="cls-3" points="53.3 43.98 71.14 12.19 96.39 45.59 121.14 3.05"/><path class="cls-4" d="M18.74,77.63v-.88a7.63,7.63,0,0,0,3.58.86c2.25,0,3.22-1,3.22-2.61s-.9-2.14-2.54-2.68L22,72c-2-.67-3-1.55-3-3.48s1.3-3.2,3.87-3.2a6.6,6.6,0,0,1,3.11.7v.92a6.66,6.66,0,0,0-3.15-.72c-1.85,0-2.77.9-2.77,2.21s.58,2.05,2.36,2.63l1,.34c1.94.65,3.19,1.42,3.19,3.56s-1.26,3.6-4.2,3.6A7.36,7.36,0,0,1,18.74,77.63Z"/><path class="cls-4" d="M30.19,68.92h1v.86h.05a6,6,0,0,1,3.13-1,2.33,2.33,0,0,1,2.23,1.08h.05A6.47,6.47,0,0,1,40,68.74a2.26,2.26,0,0,1,2.57,2.52v7.06h-1V71.47c0-1.33-.63-1.85-1.95-1.85a6,6,0,0,0-2.83.86,3.41,3.41,0,0,1,.09.77v7.06h-1V71.47c0-1.33-.58-1.85-1.89-1.85a5.66,5.66,0,0,0-2.79.86v7.83h-1Z"/><path class="cls-4" d="M45.56,75.9c0-1.62,1-2.48,2.83-2.7l2.77-.31V71.67c0-1.58-.72-2.05-2.41-2.05a8.14,8.14,0,0,0-2.38.36v-.74a7.2,7.2,0,0,1,2.74-.5c2,0,3,.81,3,2.72v6.86h-.83l-.09-.83h-.05a3.66,3.66,0,0,1-2.72,1C46.75,78.48,45.56,77.54,45.56,75.9Zm5.6.94V73.65l-2.5.29c-1.42.14-2.07.72-2.07,1.93s.83,1.82,2.12,1.82A3.72,3.72,0,0,0,51.16,76.84Z"/><path class="cls-4" d="M55.76,68.9h1V70h.05a4,4,0,0,1,2.79-1.22,2.43,2.43,0,0,1,.56.05v.92a4,4,0,0,0-3.37,1v7.56h-1Z"/><path class="cls-4" d="M63.61,76.35V69.74H62.22v-.83h1.39V66.7h1v2.21h2.56v.83H64.62v6.46c0,1,.32,1.37,1.5,1.37a4.82,4.82,0,0,0,1.26-.18v.68a3.25,3.25,0,0,1-1.51.32C64.42,78.4,63.61,77.79,63.61,76.35Z"/><path class="cls-4" d="M76.46,65.48h3.78c2.84,0,4,1.08,4,3.17a2.8,2.8,0,0,1-2.3,2.9v.07a2.94,2.94,0,0,1,2.92,3.13c0,2.2-1.4,3.56-4.18,3.56H76.46Zm3.69,5.76c1.73,0,3-.7,3-2.48s-.94-2.39-3-2.39H77.51v4.88Zm.49,6.21c2.05,0,3.13-.88,3.13-2.75s-1.26-2.61-3.39-2.61H77.51v5.37Z"/><path class="cls-4" d="M88.45,65.75h1V66.9h-1Zm0,3.17h1v9.4h-1Z"/><path class="cls-4" d="M92.81,77.54l5.65-7.76v0H93.09V68.9h6.59v.76L94,77.43v0h5.65v.85H92.81Z"/><path class="cls-4" d="M108.81,65.48h7.35v.88h-6.3v5h4.88v.92h-4.88v6h-1Z"/><path class="cls-4" d="M118.22,75.85V68.92h1V75.7c0,1.39.61,1.91,2.11,1.91a5.86,5.86,0,0,0,3-.9v-7.8h1v9.4h-.88l-.09-.86h-.05a6.28,6.28,0,0,1-3.26,1C119.27,78.5,118.22,77.65,118.22,75.85Z"/><path class="cls-4" d="M129,68.92h1v.86H130a6.48,6.48,0,0,1,3.44-1c1.8,0,2.74.72,2.74,2.52v7.06h-1V71.47c0-1.33-.58-1.85-2.12-1.85a6.5,6.5,0,0,0-3.06.86v7.83h-1Z"/><path class="cls-4" d="M139.26,73.8v-.22c0-3.39,1.76-4.84,4.18-4.84a4.71,4.71,0,0,1,2.67.74V64.61h1v13.7h-.85l-.09-.83h-.05a4.34,4.34,0,0,1-3,1C141.15,78.48,139.26,77.27,139.26,73.8Zm6.84,2.9V70.34a4.15,4.15,0,0,0-2.52-.72c-2,0-3.29,1-3.29,3.84v.31c0,2.86,1.28,3.89,3.13,3.89A4,4,0,0,0,146.1,76.69Z"/><circle class="cls-5" cx="51" cy="47.16" r="4.49"/><path class="cls-6" d="M122.88,0l-6.3,2.7a.27.27,0,0,0,0,.48l4.5.26,2.28,3.89a.27.27,0,0,0,.42-.25L123.26.25A.27.27,0,0,0,122.88,0Z"/></g></g></svg>